<?xml version="1.0" encoding="iso-8859-1"?>
<!-- Generator: Adobe Illustrator 16.0.0, SVG Export Plug-In . SVG Version: 6.00 Build 0)  -->
<!DOCTYPE svg PUBLIC "-//W3C//DTD SVG 1.1//EN" "http://www.w3.org/Graphics/SVG/1.1/DTD/svg11.dtd">
<svg version="1.1" id="Capa_1" xmlns="http://www.w3.org/2000/svg" xmlns:xlink="http://www.w3.org/1999/xlink" x="0px" y="0px"
	 width="382.67px" height="382.67px" viewBox="0 0 382.67 382.67" style="enable-background:new 0 0 382.67 382.67;"
	 xml:space="preserve">
<g>
	<g>
		<g>
			<g>
				<path d="M68.801,104.615c2.511-3.433,3.812-5.109,6.516-8.291c4.052,3.054,6.083,4.595,10.153,7.631
					c4.543-5.366,6.972-7.853,12.062-12.483c-3.596-3.515-5.389-5.272-8.991-8.799c3.036-2.738,4.589-4.081,7.783-6.592
					c8.646,9.797,13.014,14.684,21.667,24.469c-2.464,1.933-3.655,2.937-6.002,5.068c-4.041-3.97-6.06-5.943-10.112-9.902
					c-4.87,4.414-7.175,6.767-11.52,11.899c4.572,3.421,6.866,5.149,11.432,8.571c-2.09,2.464-3.118,3.731-5.045,6.388
					C85.563,115.375,79.958,111.814,68.801,104.615z"/>
				<path d="M112.491,84.285c-0.87-1.267-1.256-2.522-1.156-3.789c0.093-1.267,0.49-2.534,1.278-3.766
					c0.765-1.22,1.805-2.37,3.083-3.456c1.302-1.086,2.727-2.114,4.245-2.966c1.366-0.765,2.796-1.413,4.303-2.008
					c1.506-0.584,2.966-0.958,4.391-1.098c1.401-0.146,2.68,0.035,3.789,0.467c1.15,0.438,2.008,1.313,2.633,2.545
					c2.16,4.338,3.241,6.527,5.401,10.866c0.467,0.946,0.981,1.821,1.536,2.633c0.549,0.812,1.098,1.349,1.6,1.664
					c-2.592,1.109-3.877,1.711-6.411,2.972c-0.298-0.246-0.583-0.514-0.835-0.789c-0.251-0.274-0.73-0.94-0.73-0.94
					c-0.157,0.023-1.278,2.709-2.364,3.801c-1.092,1.086-2.289,2.055-3.638,2.867c-1.039,0.637-2.066,1.092-3.124,1.425
					c-1.051,0.333-2.102,0.514-3.094,0.502c-1.004-0.012-1.974-0.192-2.896-0.619c-0.917-0.42-1.781-1.104-2.545-2.049
					c-0.847-1.04-1.302-2.079-1.413-3.06c-0.105-0.993,0.064-1.95,0.49-2.855c0.444-0.922,1.08-1.833,1.903-2.68
					c0.812-0.835,1.723-1.606,2.68-2.359c0.97-0.753,1.875-1.477,2.797-2.114c0.911-0.625,1.723-1.208,2.394-1.757
					c0.666-0.572,1.144-1.127,1.43-1.676c0.292-0.537,0.28-1.15-0.047-1.71c-0.344-0.596-0.741-0.969-1.22-1.191
					c-0.467-0.216-0.981-0.327-1.519-0.292c-0.514,0.035-1.121,0.204-1.71,0.432c-0.583,0.239-1.22,0.525-1.851,0.887
					c-1.378,0.8-2.341,1.635-2.843,2.569c-0.491,0.923-0.421,2.009,0.175,3.118C116.484,81.547,115.136,82.423,112.491,84.285z
					 M130.748,78.797c-0.175,0.362-0.426,0.742-0.788,1.063c-0.356,0.327-0.776,0.706-1.209,1.045
					c-0.449,0.344-0.928,0.677-1.442,1.027c-0.514,0.356-1.004,0.73-1.448,1.086c-0.479,0.386-0.911,0.789-1.279,1.197
					c-0.385,0.385-0.695,0.788-0.887,1.22c-0.193,0.403-0.274,0.893-0.251,1.349c0.023,0.467,0.192,0.934,0.514,1.401
					c0.362,0.502,0.753,0.788,1.173,0.981c0.42,0.187,0.858,0.274,1.337,0.251c0.467-0.035,0.969-0.158,1.495-0.362
					c0.514-0.204,1.028-0.426,1.547-0.729c1.226-0.712,2.09-1.407,2.557-2.149c0.479-0.729,0.718-1.471,0.753-2.154
					c0.035-0.671-0.035-1.29-0.263-1.851c-0.228-0.561-0.456-0.969-0.636-1.279C131.455,80.052,131.227,79.626,130.748,78.797z"/>
				<path d="M145.385,56.091c-3.299,1.051-4.939,1.629-8.18,2.855c-0.835-1.933-1.255-2.867-2.102-4.793
					c3.357-1.278,5.056-1.897,8.478-2.989C144.311,53.137,144.679,54.118,145.385,56.091z M138.653,62.274
					c3.159-1.208,4.747-1.757,7.964-2.773c3.159,8.729,4.724,13.079,7.882,21.807c-2.645,0.841-3.958,1.308-6.539,2.3
					C144.229,75.066,142.373,70.81,138.653,62.274z"/>
				<path d="M152.97,57.621c3.083-0.823,4.624-1.197,7.759-1.839c0.403,1.67,0.607,2.511,1.016,4.187
					c0.046-0.018,0.07-0.053,0.116-0.064c0.216-0.753,0.566-1.495,1.069-2.207c0.502-0.735,1.167-1.401,1.909-1.973
					c0.753-0.59,1.617-1.068,2.563-1.459c0.952-0.397,1.956-0.672,2.966-0.806c0.631-0.093,1.244-0.105,1.839-0.035
					c0.344,2.335,0.514,3.479,0.858,5.815c-0.368-0.023-0.835,0-1.36,0.023c-0.538,0.023-1.028,0.093-1.518,0.164
					c-1.472,0.228-2.68,0.636-3.603,1.197c-0.905,0.549-1.611,1.208-2.055,1.974c-0.467,0.765-0.707,1.641-0.742,2.586
					c-0.046,0.928,0.059,1.862,0.298,2.843c0.97,4.052,1.448,6.095,2.406,10.153c-2.715,0.561-4.076,0.893-6.755,1.623
					C157.021,70.933,155.685,66.495,152.97,57.621z"/>
				<path d="M197.641,68.241c-0.035,0.677,0.082,1.255,0.385,1.758c0.304,0.502,0.678,0.958,1.156,1.302
					c0.479,0.333,1.051,0.572,1.705,0.765c0.63,0.204,1.308,0.333,2.008,0.397c0.514,0.046,1.04,0.046,1.588,0
					c0.561-0.064,1.098-0.158,1.576-0.31c0.49-0.181,0.899-0.42,1.261-0.759c0.351-0.333,0.596-0.812,0.678-1.372
					c0.059-0.455-0.094-0.87-0.432-1.255c-0.315-0.397-0.817-0.742-1.518-1.086c-0.666-0.351-1.53-0.695-2.569-1.004
					c-1.016-0.304-2.207-0.636-3.538-0.958c-1.062-0.251-2.137-0.578-3.199-0.888c-1.027-0.309-1.95-0.718-2.768-1.185
					c-0.817-0.473-1.495-1.051-1.997-1.746c-0.502-0.689-0.771-1.565-0.771-2.569c0-1.46,0.351-2.68,1.109-3.632
					c0.748-0.958,1.775-1.728,3.048-2.242c1.261-0.514,2.686-0.87,4.274-1.004c1.577-0.14,3.246-0.128,4.893,0.012
					c1.646,0.146,3.258,0.432,4.776,0.852c1.518,0.42,2.814,1.016,3.9,1.746c1.098,0.741,1.985,1.6,2.604,2.656
					c0.596,1.051,0.794,2.283,0.666,3.713c-2.989-0.525-4.484-0.724-7.485-1.086c0.07-1.232-0.408-2.113-1.413-2.668
					c-1.004-0.549-2.23-0.87-3.678-0.993c-0.467-0.035-0.969-0.093-1.507-0.082c-0.525,0.012-1.027,0.1-1.471,0.216
					c-0.456,0.128-0.841,0.298-1.18,0.572c-0.315,0.251-0.502,0.648-0.537,1.138c-0.035,0.549,0.222,1.016,0.724,1.396
					c0.491,0.385,1.145,0.695,1.962,0.981c0.817,0.292,1.74,0.566,2.768,0.829c1.051,0.274,2.102,0.584,3.165,0.905
					c1.098,0.351,2.195,0.753,3.211,1.197c1.004,0.432,1.892,0.958,2.592,1.564c0.736,0.613,1.262,1.354,1.624,2.154
					c0.327,0.789,0.397,1.734,0.175,2.773c-0.315,1.483-0.958,2.68-1.833,3.55c-0.864,0.876-1.903,1.559-3.071,2.009
					c-1.156,0.443-2.464,0.718-3.865,0.817c-1.401,0.105-2.803,0.105-4.228-0.023c-1.448-0.134-2.86-0.374-4.238-0.73
					c-1.378-0.35-2.604-0.812-3.69-1.483c-1.074-0.66-1.973-1.518-2.674-2.545c-0.712-1.034-1.145-2.301-1.238-3.819
					C193.413,68.083,194.838,68.106,197.641,68.241z"/>
				<path d="M233.758,58.578c2.358,0.707,3.55,1.074,5.885,1.862c-0.631,1.606-0.934,2.394-1.564,3.994
					c-2.254-0.759-3.41-1.144-5.698-1.815c-1.472,4.355-2.184,6.516-3.667,10.871c-0.35,1.016-0.361,1.746-0.105,2.201
					c0.27,0.444,0.97,0.882,2.149,1.255c0.759,0.251,1.506,0.426,2.207,0.537c-0.725,1.851-1.098,2.796-1.833,4.665
					c-0.584-0.111-1.227-0.28-1.916-0.467c-0.7-0.204-1.366-0.397-2.008-0.601c-1.027-0.31-1.997-0.619-2.873-1.004
					c-0.898-0.379-1.611-0.87-2.219-1.431c-0.584-0.555-1.016-1.249-1.237-2.038c-0.233-0.788-0.187-1.757,0.116-2.878
					c1.425-5.26,2.126-7.905,3.539-13.189c-1.928-0.444-2.885-0.637-4.8-1.016c0.362-1.664,0.549-2.511,0.923-4.174
					c1.996,0.397,2.989,0.607,4.975,1.074c0.724-2.686,1.074-4.041,1.786-6.732c3.444,0.788,5.161,1.244,8.56,2.248
					C235.077,54.596,234.645,55.945,233.758,58.578z"/>
				<path d="M244.278,90.766c-1.576,1.279-3.141,2.067-4.683,2.259c-1.541,0.216-3.27-0.192-5.312-1.027
					c-0.596-0.251-1.227-0.537-1.799-0.812c-0.584-0.274-1.167-0.514-1.763-0.788c0.817-1.938,1.226-2.919,2.056-4.858
					c0.571,0.274,1.144,0.578,1.739,0.864c0.584,0.298,1.237,0.583,1.845,0.776c0.537,0.175,1.086,0.216,1.564,0.105
					c0.479-0.105,0.935-0.321,1.285-0.619c0.35-0.304,0.666-0.683,0.876-1.115c0.233-0.467,0.339-0.905,0.373-1.396
					c0.572-9.283,0.515-14.03-0.385-23.57c3.409,1.186,5.091,1.839,8.419,3.241c-0.164,6.854-0.432,10.211-1.262,16.908
					c0.035,0.023,0.047,0.035,0.094,0.059c5.196-4.613,7.952-6.813,13.662-11.035c3.106,1.676,4.625,2.569,7.613,4.438
					C258.104,80.117,253.212,83.474,244.278,90.766z"/>
				<path d="M276.566,68.644c3.047,2.003,4.53,3.042,7.473,5.237c-8.419,10.013-12.635,15.011-21.077,24.983
					c-2.254-1.699-3.409-2.54-5.769-4.081C264.947,84.332,268.836,79.136,276.566,68.644z"/>
				<path d="M279.217,99.045c-1.413,1.518-2.021,3.024-1.915,4.443c0.104,1.448,0.899,2.908,2.37,4.438
					c1.051,1.092,2.184,1.839,3.457,2.248c1.237,0.409,2.265,0.502,3.035,0.251c1.811,2.073,2.675,3.147,4.379,5.331
					c-3.035,0.748-5.733,0.66-8.139-0.245c-2.394-0.887-4.601-2.452-6.68-4.595c-1.436-1.472-2.521-2.955-3.293-4.519
					c-0.759-1.542-1.214-3.083-1.33-4.642c-0.129-1.553,0.081-3.106,0.618-4.647c0.537-1.53,1.401-3.001,2.64-4.356
					c1.202-1.302,2.58-2.283,4.191-2.942c1.588-0.642,3.305-0.928,5.161-0.812c1.834,0.123,3.749,0.59,5.664,1.495
					c1.903,0.899,3.736,2.248,5.441,4.005c1.903,1.961,3.223,4.028,3.923,6.025c0.725,2.014,0.935,3.923,0.654,5.704
					c-0.257,1.787-0.945,3.398-2.008,4.799c-1.075,1.396-2.43,2.534-4.076,3.451C288.103,107.733,285.266,104.639,279.217,99.045z
					 M291.501,105.701c1.062-1.314,1.576-2.592,1.564-3.883c-0.012-1.278-0.735-2.75-2.184-4.233
					c-0.957-0.981-1.856-1.652-2.756-2.038c-0.899-0.379-1.739-0.572-2.499-0.572c-0.771-0.012-1.447,0.111-2.008,0.356
					c-0.584,0.269-1.027,0.555-1.413,0.84C286.083,99.757,287.951,101.649,291.501,105.701z"/>
			</g>
		</g>
		<g>
			<path d="M206.69,84.227c-5.302-0.812-10.731-1.244-16.155-1.244c-52.798,0-98.549,39.41-106.443,91.665
				c-8.845,58.719,31.727,113.706,90.445,122.58c5.325,0.818,10.761,1.238,16.144,1.238c52.804,0,98.578-39.41,106.437-91.666
				c4.298-28.434-2.768-56.844-19.874-80.005C260.171,103.623,235.089,88.495,206.69,84.227z M289.224,205.599
				c-7.298,48.366-49.663,84.869-98.543,84.869c-5.021,0-10.042-0.386-14.946-1.132c-26.291-3.971-49.505-17.972-65.334-39.445
				c-15.834-21.463-22.373-47.749-18.403-74.045c7.292-48.366,49.657-84.863,98.538-84.863c4.934,0,9.966,0.374,14.952,1.115
				c26.297,3.97,49.487,17.971,65.333,39.445S293.194,179.313,289.224,205.599z"/>
			<path d="M377.094,196.456c1.95-2.931,3.644-5.447,4.263-7.182c2.697-6.516,0.853-12.523-5.477-17.772
				c-0.759-0.654-1.472-1.133-2.23-1.693c1.81-3.9,3.573-7.415,3.981-9.47c1.869-7.596-2.568-12.203-7.438-15.14
				c-1.133-0.707-2.242-1.244-3.34-1.821c0.292-1.36,0.584-2.715,0.91-4.087c0.339-1.243,0.689-2.452,1.017-3.614
				c0.992-3.451,1.845-6.44,1.938-8.466c-0.117-10.101-7.45-13.75-13.814-15.829c0.537-4.291,1.121-8.133,0.911-10.211
				c-1.565-9.628-9.307-11.601-15.986-12.564c-0.21-2.289-0.351-4.595-0.432-6.65c-0.188-4.303-0.327-7.724-1.168-9.616
				c-2.942-9.552-10.965-10.661-16.733-10.661c-0.432,0-0.829,0.047-1.249,0.047c-0.841-4.32-1.519-8.086-2.628-9.855
				c-4.309-8.898-12.377-8.081-19.057-6.778c-1.027-2.26-1.997-4.554-2.85-6.604c-1.459-3.573-2.709-6.656-3.946-8.355
				c-2.768-4.005-6.645-6.037-11.525-6.037c-1.915,0-3.982,0.298-6.329,0.928c-0.958,0.251-1.752,0.625-2.662,0.946
				c-2.219-3.731-4.111-6.995-5.617-8.536c-5.359-5.681-11.735-4.233-16.757-2.044c-1.284,0.561-2.44,1.244-3.608,1.898
				c-1.646-1.758-3.258-3.597-4.646-5.237c-2.71-3.153-4.835-5.652-6.645-6.767c-5.769-3.777-11.946-3.526-18.521,0.934
				c-0.794,0.607-1.425,1.209-2.148,1.804c-3.316-2.843-6.142-5.371-8.068-6.206c-6.96-3.182-12.472-0.345-16.523,3.375
				c-1.016,1.027-1.874,2.079-2.738,3.118c-1.997-1.086-3.982-2.213-5.833-3.299c-3.742-2.224-6.708-3.982-8.764-4.355
				c-6.994-1.944-12.938,0.467-17.218,6.948c-0.555,0.783-0.957,1.518-1.436,2.289c-4.041-1.629-7.573-3.124-9.651-3.17
				c-7.666-0.958-12.016,3.322-14.48,8.635c-0.636,1.238-1.104,2.47-1.605,3.702c-2.458-0.368-4.911-0.823-7.222-1.267
				c-3.573-0.654-6.645-1.244-8.764-1.244h-0.415c-10.153,0.304-13.061,9.26-14.03,12.197c-0.297,0.934-0.415,1.781-0.63,2.691
				c-4.309-0.169-8.04-0.356-10.153,0.035c-7.678,1.401-9.949,7.555-10.836,12.938c-0.222,1.377-0.286,2.715-0.368,4.028
				c-2.26,0.385-4.542,0.718-6.72,0.969c-4.327,0.537-7.748,0.958-9.604,1.95c-9.382,3.935-9.768,12.126-9.084,18.783
				c-4.163,1.173-7.783,2.154-9.447,3.363c-8.384,5.121-6.994,13.02-5.167,19.565c-0.87,0.45-1.734,0.952-2.604,1.407l-1.291,0.671
				c-1.138,0.619-2.236,1.208-3.316,1.769c-3.117,1.623-5.832,3.036-7.222,4.28c-8.058,6.446-4.706,15.332-3.597,18.269
				c0.344,0.888,0.741,1.652,1.121,2.476c-3.416,2.528-6.516,4.7-7.853,6.265c-5.348,5.792-3.363,12.022-0.648,16.874
				c0.694,1.197,1.424,2.225,2.143,3.293c-1.851,2.102-3.766,4.11-5.488,5.891c-2.452,2.569-4.577,4.758-5.774,6.58
				c-4.618,8.927,0.023,15.636,4.601,20.481c-2.399,3.421-4.577,6.411-5.5,8.344c-3.118,9.172,2.668,14.59,8.022,18.642
				c-0.917,2.09-1.909,4.192-2.867,6.131c-1.95,3.958-3.48,7.076-3.649,9.201c-1.851,10.065,4.869,14.842,10.871,17.925
				c-1.29,4.087-2.464,7.648-2.323,9.68c-0.31,9.809,7.012,12.962,13.469,15.006c-0.099,1.086-0.158,2.195-0.269,3.27l-0.128,1.156
				c-0.123,1.237-0.239,2.475-0.345,3.631c-0.338,3.55-0.636,6.621-0.374,8.478c0.993,10.218,10.247,12.319,13.335,13.021
				c0.98,0.222,1.862,0.279,2.797,0.42c0.251,4.238,0.367,7.999,0.969,9.973c1.921,7.66,8.227,9.354,13.762,9.773
				c1.325,0.07,2.545,0.023,3.789,0.012c0.671,2.499,1.244,5.021,1.746,7.275c0.852,3.923,1.529,7.053,2.51,8.955
				c3.328,6.143,9.184,8.746,16.756,7.977c1.063-0.164,1.997-0.397,2.989-0.631c1.53,3.994,2.809,7.461,4.029,9.178
				c4.601,6.119,10.807,6.236,16.155,4.857c1.29-0.385,2.458-0.875,3.666-1.33c0.829,1.261,1.676,2.58,2.348,3.736
				c2.854,4.636,5.202,8.303,6.971,10.019c2.785,2.744,5.967,4.239,9.563,4.473c2.762-0.023,5.693-0.806,8.91-2.405
				c0.893-0.433,1.635-0.923,2.476-1.391c2.796,3.271,5.284,6.084,6.971,7.275c3.106,2.254,6.195,2.967,9.015,2.744
				c2.867-0.467,5.488-1.833,7.842-3.479c1.068-0.747,1.985-1.519,2.931-2.3c2.055,1.553,4.052,3.164,5.827,4.6
				c2.978,2.441,5.535,4.543,7.397,5.441c2.119,1.133,4.256,1.693,6.398,1.693c5.104,0,9.167-3.27,11.782-5.732
				c0.759-0.748,1.354-1.483,2.032-2.242c3.655,2.172,6.854,4.121,8.886,4.752c7.438,2.627,12.319-1.892,15.694-6.212
				c0.782-1.04,1.413-2.067,2.066-3.095c2.477,0.795,4.894,1.693,7.054,2.522c3.725,1.401,6.667,2.511,8.793,2.756
				c6.971,0.502,12.226-2.709,15.846-9.692c0.467-0.98,0.771-1.903,1.133-2.872c4.215,0.899,7.87,1.751,9.983,1.669
				c7.648-0.525,11.141-5.662,12.903-10.859c0.397-1.331,0.631-2.604,0.888-3.877c1.413,0.012,2.826,0.047,4.262,0.117
				c2.021,0.047,3.959,0.094,5.688,0.094c3.152,0,5.161-0.141,6.469-0.432c6.994-1.367,10.988-6.201,11.863-14.305
				c0.129-1.005,0.141-1.904,0.188-2.873c4.332-0.561,8.068-1.098,10.019-1.856c7.368-2.64,8.875-8.746,8.618-14.491
				c-0.035-1.285-0.199-2.465-0.315-3.679c1.343-0.502,2.697-1.051,3.993-1.483c1.238-0.396,2.441-0.758,3.597-1.121
				c3.573-1.086,6.399-1.938,8.151-2.977c8.477-5.688,7.438-13.908,5.687-20.389c3.888-1.868,7.38-3.445,8.979-4.74
				c7.17-6.551,4.647-14.061,1.845-20.179c1.787-1.39,3.632-2.768,5.396-4.04c3.503-2.499,6.259-4.473,7.379-6.201
				c6.493-7.951,2.803-15.391-1.039-20.96c3.165-3.071,5.955-5.71,6.82-7.591c4.985-8.441,0.022-14.712-4.718-19.582
				c0.782-1.179,1.541-2.324,2.382-3.526C375.728,198.499,376.429,197.448,377.094,196.456z M14.321,238.668
				c-5.43-2.838-10.247-6.621-8.775-14.654c0.129-1.693,1.711-4.881,3.369-8.256c0.888-1.787,1.775-3.725,2.633-5.652
				c1.15,0.841,2.225,1.646,3.048,2.394c0.59,4.787,1.244,9.575,2.225,14.246C16.64,230.623,15.507,234.768,14.321,238.668z
				 M14.719,167.882c-1.629,3.742-4.046,7.497-6.411,10.941c-3.993-4.344-7.315-9.604-3.742-16.465
				c0.957-1.448,2.989-3.579,5.354-6.031c1.559-1.623,3.305-3.491,5.016-5.377c0.741,1.086,1.495,2.161,1.997,3.095
				C15.974,158.616,15.314,163.229,14.719,167.882z M337.45,73.391c0.666,1.547,0.829,5.027,0.981,8.705
				c0.081,1.88,0.233,4.011,0.42,6.102c-1.437-0.205-2.791-0.374-3.9-0.66c-2.639-3.684-5.324-7.327-8.232-10.807
				c-1.868-3.526-2.989-7.882-3.865-12.051C328.657,64.534,334.975,65.38,337.45,73.391z M276.659,27.908
				c7.088-1.892,11.49-0.648,14.667,3.935c1.027,1.46,2.241,4.385,3.631,7.771c0.76,1.874,1.682,3.993,2.616,6.072
				c-1.413,0.286-2.756,0.537-3.865,0.625c-3.702-2.668-7.497-5.121-11.397-7.474c-2.79-2.954-5.277-6.697-7.508-10.276
				C275.434,28.352,276.018,28.072,276.659,27.908z M219.149,8.67c5.477-3.719,10.369-4.035,15.216-0.864
				c1.447,0.899,3.643,3.479,5.979,6.207c1.272,1.495,2.732,3.158,4.227,4.758c-1.109,0.66-2.23,1.313-3.188,1.757
				c-4.566-1.36-9.201-2.592-13.919-3.585c-3.445-1.746-6.819-4.355-9.902-6.948C218.087,9.563,218.577,9.085,219.149,8.67z
				 M158.574,9.312c2.762-4.187,6.219-6.3,10.212-6.3c1.197,0,2.452,0.181,3.9,0.572c1.676,0.303,4.711,2.119,7.917,4.005
				c1.6,0.958,3.479,1.997,5.342,3.013c-0.847,1.028-1.71,2.084-2.499,2.826c-4.688,0.175-9.376,0.455-13.966,1.016
				c-3.923-0.455-8.057-1.927-11.958-3.456C157.88,10.439,158.184,9.879,158.574,9.312z M101.397,29.677
				c2.225-6.86,5.704-9.996,11.619-10.165c1.833,0,4.787,0.549,8.18,1.22c1.997,0.386,4.279,0.777,6.58,1.15
				c-0.502,1.255-0.981,2.522-1.524,3.445c-4.292,1.682-8.449,3.538-12.565,5.523c-4.017,0.741-8.524,0.788-12.745,0.666
				C101.123,30.897,101.182,30.273,101.397,29.677z M61.521,54.036c1.494-0.788,4.998-1.22,8.705-1.687
				c1.874-0.24,3.994-0.549,6.096-0.899c-0.059,1.343-0.105,2.691-0.263,3.772c-3.626,3.059-7.129,6.177-10.463,9.517
				c-3.387,2.008-7.543,3.392-11.514,4.578C53.48,63.255,54.047,57.153,61.521,54.036z M22.069,120.146
				c-0.274-0.607-0.549-1.121-0.788-1.746c-2.546-6.778-1.723-11.356,2.727-14.935c1.197-1.051,3.742-2.388,6.708-3.947
				c1.075-0.561,2.201-1.156,3.322-1.757l1.255-0.654c0.683-0.339,1.401-0.753,2.084-1.139c0.415,1.401,0.788,2.738,0.958,3.865
				c-2.347,3.929-4.548,7.935-6.592,12.062C29.151,115.031,25.467,117.658,22.069,120.146z M37.495,292.92
				c-7.076-1.635-10.486-4.822-11.023-10.463c-0.228-1.6,0.058-4.483,0.379-7.858c0.123-1.19,0.239-2.405,0.338-3.644l0.117-1.145
				c0.087-0.828,0.122-1.786,0.204-2.674c1.425,0.433,2.773,0.842,3.824,1.32c2.009,4.121,4.198,8.15,6.51,12.074
				c1.227,3.899,1.431,8.453,1.646,12.681C38.809,293.119,38.178,293.061,37.495,292.92z M78.82,337.258
				c-0.777,0.082-1.542,0.129-2.33,0.129c-5.313,0-9.067-2.148-11.432-6.539c-0.788-1.53-1.46-4.648-2.248-8.221
				c-0.455-2.056-1.004-4.344-1.582-6.633c1.39-0.035,2.75-0.082,3.877,0.023c3.287,3.258,6.755,6.34,10.246,9.33
				c2.318,3.328,4.151,7.496,5.728,11.443C80.326,336.955,79.597,337.141,78.82,337.258z M132.511,365.424
				c-2.814,1.4-5.313,2.102-7.514,2.125c-2.762-0.188-5.307-1.402-7.578-3.632c-1.53-1.483-3.865-5.161-6.493-9.423
				c-0.572-0.993-1.367-2.149-2.055-3.247c1.372-0.537,2.715-1.074,3.824-1.354c4.163,2.043,8.372,3.971,12.676,5.676
				c3.31,2.276,6.253,5.569,8.956,8.839C133.714,364.746,133.153,365.119,132.511,365.424z M192.409,374.8
				c-2.242,2.103-5.687,4.904-9.728,4.904c-1.641,0-3.322-0.443-5.044-1.366c-1.583-0.759-4.029-2.756-6.878-5.103
				c-1.6-1.308-3.457-2.756-5.296-4.169c1.109-0.922,2.189-1.822,3.13-2.417c4.571,0.549,9.207,0.864,13.884,1.086
				c3.854,1.272,7.748,3.397,11.379,5.477C193.366,373.749,192.946,374.286,192.409,374.8z M252.172,364.454
				c-2.825,5.441-6.655,8.093-11.712,8.093c-0.396,0-0.806-0.023-1.179-0.047c-1.717-0.199-4.659-1.297-8.034-2.593
				c-1.962-0.735-4.192-1.53-6.399-2.265c0.725-1.191,1.437-2.359,2.113-3.247c4.648-0.97,9.226-2.195,13.732-3.538
				c3.971-0.07,8.279,0.654,12.332,1.471C252.721,363.029,252.488,363.766,252.172,364.454z M305.081,334.923
				c-0.735,6.796-3.842,10.649-9.528,11.759c-1.459,0.326-4.04,0.361-5.861,0.361c-1.717,0-3.632-0.035-5.582-0.081
				c-1.215-0.07-2.452-0.094-3.679-0.105c0.292-1.425,0.561-2.837,0.946-3.923c3.842-2.289,7.637-4.672,11.28-7.229
				c3.748-1.67,8.221-2.406,12.564-2.885C305.175,333.521,305.175,334.188,305.081,334.923z M340.696,304.281
				c-1.366,0.795-4.181,1.67-7.438,2.663c-1.167,0.339-2.382,0.724-3.654,1.121c-1.086,0.362-2.207,0.829-3.328,1.249
				c-0.176-1.459-0.327-2.884-0.292-4.052c2.896-3.386,5.581-6.96,8.209-10.591c1.623-1.344,3.34-2.615,5.325-3.713
				c1.845-1.191,3.795-2.207,5.744-3.188C346.769,293.562,347.294,299.88,340.696,304.281z M190.657,348.562
				c-87.1,0-157.968-70.868-157.968-157.95c0-87.123,70.868-157.979,157.968-157.979s157.956,70.856,157.956,157.979
				C348.613,277.705,277.757,348.562,190.657,348.562z M356.589,114.395c5.617,1.892,11.082,4.928,11.163,12.781
				c-0.058,1.594-0.91,4.548-1.821,7.701c-0.339,1.162-0.677,2.382-1.086,3.912c-0.257,0.993-0.467,2.079-0.7,3.124
				c-1.238-0.625-2.453-1.25-3.363-1.845c-1.308-4.379-2.861-8.629-4.473-12.839C355.9,123.077,356.238,118.616,356.589,114.395z
				 M369.188,249.493c-0.923,1.39-3.748,3.397-6.737,5.546c-1.529,1.098-3.234,2.395-4.928,3.714c-0.631-1.331-1.227-2.593-1.6-3.69
				c1.682-4.297,3.305-8.641,4.647-13.078c1.927-3.41,4.904-6.656,7.823-9.587C371.84,237.477,374.361,243.141,369.188,249.493z
				 M372.563,197.927c-0.712,1.004-1.343,2.032-2.044,3.048c-1.027-1.051-1.996-2.032-2.697-2.931
				c0.105-2.476,0.386-4.928,0.386-7.42c0-2.248-0.257-4.402-0.339-6.627c0.794-3.848,2.627-7.748,4.484-11.443
				c0.537,0.397,1.074,0.759,1.611,1.208c5.383,4.484,6.866,9.067,4.636,14.444c-0.525,1.46-2.126,3.848-3.959,6.604
				C373.953,195.813,373.252,196.888,372.563,197.927z"/>
			<path d="M323.402,176.552c6.691,0,12.109,5.418,12.109,12.109c0,6.685-5.418,12.115-12.109,12.115
				c-6.69,0-12.12-5.43-12.12-12.115C311.282,181.97,316.712,176.552,323.402,176.552z"/>
			<path d="M59.629,179.226c6.696,0,12.126,5.43,12.126,12.126c0,6.691-5.43,12.121-12.126,12.121
				c-6.697,0-12.127-5.43-12.127-12.121C47.502,184.656,52.932,179.226,59.629,179.226z"/>
			<polygon points="226.88,122.586 226.927,118.184 198.399,174 204.868,186.985 			"/>
			<path d="M186.664,193.034l-25.889,27.873c-0.583-0.081-1.173-0.128-1.757-0.14c-7.666-0.152-14.766,5.896-16.897,14.362
				c-1.185,4.694-0.718,9.54,1.291,13.593c2.084,4.215,5.564,7.123,9.797,8.197c1.051,0.256,2.137,0.408,3.217,0.432
				c5.856,0.129,11.391-3.41,14.62-8.875c0.362,0.141,0.741,0.223,1.15,0.223c2.248,0.047,4.11-1.752,4.175-4.018
				c0.035-1.763-1.069-3.281-2.633-3.877c0.572-3.993-0.012-7.975-1.723-11.432c-1.162-2.335-2.762-4.238-4.688-5.698l22.396-21.019
				L186.664,193.034z M167.642,231.545c1.483,3.025,1.816,6.656,0.917,10.229c-1.565,6.271-6.633,10.743-12.027,10.638
				c-0.707,0-1.413-0.094-2.102-0.257c-2.826-0.724-5.167-2.709-6.615-5.593c-1.507-3.049-1.828-6.691-0.946-10.241
				c1.594-6.259,6.65-10.755,12.027-10.649c0.718,0.012,1.425,0.105,2.108,0.269C163.847,226.664,166.194,228.661,167.642,231.545z"
				/>
			<path d="M248.658,244.039c0.268-2.241,0.175-4.588-0.305-6.877c-1.81-8.548-8.664-14.854-16.324-14.994
				c-0.21-0.012-0.42,0.012-0.631,0.012l-28.644-32.31l-35.772-71.925l0.788,6.341l23.903,75.031l8.91,0.35l22.315,25.574
				c-1.67,1.307-3.083,3-4.192,5.009c-2.184,4.005-2.826,8.816-1.833,13.546c1.81,8.547,8.676,14.865,16.336,15.016
				c1.086,0.023,2.172-0.093,3.223-0.303c2.382-0.502,4.531-1.611,6.376-3.188c6.071-2.301,12.155,3.246,13.86,3.923
				c1.717,0.7,4.834-1.81,4.239-2.79C260.335,255.529,248.879,250.24,248.658,244.039z M196.263,194.856
				c-1.401-0.047-2.546-1.226-2.522-2.627c0.047-1.425,1.214-2.552,2.639-2.528c1.413,0.041,2.546,1.208,2.522,2.622
				C198.878,193.747,197.699,194.879,196.263,194.856z M242.224,248.36c-1.554,2.837-3.97,4.741-6.819,5.349
				c-0.689,0.128-1.401,0.209-2.102,0.197c-5.407-0.104-10.288-4.775-11.631-11.104c-0.771-3.597-0.28-7.216,1.319-10.194
				c1.542-2.837,3.97-4.74,6.819-5.336c0.689-0.141,1.413-0.223,2.113-0.211c5.396,0.117,10.276,4.777,11.619,11.117
				C244.313,241.774,243.835,245.395,242.224,248.36z"/>
			<path d="M213.626,305.018c-5.43-1.6-18.006,14.035-20.107,14.035c-0.374,0-4.035,0-4.391,0c-2.108,0-14.684-15.635-20.114-14.035
				c-5.43,1.6-7.497,33.561-1.027,33.561c6.469,0,17.218-7.707,18.917-8.326c0.619-0.246,8.227-0.246,8.845,0
				c1.682,0.631,12.448,8.326,18.917,8.326S219.045,306.617,213.626,305.018z"/>
		</g>
	</g>
</g>
<g>
</g>
<g>
</g>
<g>
</g>
<g>
</g>
<g>
</g>
<g>
</g>
<g>
</g>
<g>
</g>
<g>
</g>
<g>
</g>
<g>
</g>
<g>
</g>
<g>
</g>
<g>
</g>
<g>
</g>
</svg>
